<?xml version="1.0" encoding="UTF-8" standalone="no"?>
<!-- Created with Inkscape (http://www.inkscape.org/) -->

<svg
   version="1.1"
   id="svg2"
   xml:space="preserve"
   width="1866.6667"
   height="1306.6667"
   viewBox="0 0 1866.6667 1306.6667"
   sodipodi:docname="bg-white3.svg"
   inkscape:version="1.1 (c68e22c387, 2021-05-23)"
   xmlns:inkscape="http://www.inkscape.org/namespaces/inkscape"
   xmlns:sodipodi="http://sodipodi.sourceforge.net/DTD/sodipodi-0.dtd"
   xmlns="http://www.w3.org/2000/svg"
   xmlns:svg="http://www.w3.org/2000/svg"><defs
     id="defs6"><clipPath
       clipPathUnits="userSpaceOnUse"
       id="clipPath20"><path
         d="M 0,0 C 0,0 37.4961,3791.7 5918.08,5381.86 11798.7,6972.02 14000,9800 14000,9800 V 0 Z"
         id="path18" /></clipPath><linearGradient
       x1="0"
       y1="0"
       x2="1"
       y2="0"
       gradientUnits="userSpaceOnUse"
       gradientTransform="matrix(-1080,2480,2480,1080,7266.69,4287.59)"
       spreadMethod="pad"
       id="linearGradient26"><stop
         style="stop-opacity:1;stop-color:#ffffff"
         offset="0"
         id="stop22" /><stop
         style="stop-opacity:1;stop-color:#d1d2d3"
         offset="1"
         id="stop24" /></linearGradient><clipPath
       clipPathUnits="userSpaceOnUse"
       id="clipPath36"><path
         d="m 217.516,0 c 0,0 960.094,3461.67 6270.624,3911.71 C 12677.6,4436.24 14000,6430 14000,6430 V 0 Z"
         id="path34" /></clipPath><linearGradient
       x1="0"
       y1="0"
       x2="1"
       y2="0"
       gradientUnits="userSpaceOnUse"
       gradientTransform="matrix(-740,2500,2500,740,7278.6,2641.19)"
       spreadMethod="pad"
       id="linearGradient42"><stop
         style="stop-opacity:1;stop-color:#ffffff"
         offset="0"
         id="stop38" /><stop
         style="stop-opacity:1;stop-color:#d1d2d3"
         offset="1"
         id="stop40" /></linearGradient><clipPath
       clipPathUnits="userSpaceOnUse"
       id="clipPath52"><path
         d="m 1237.62,0 c 0,0 1511.26,2531.57 5871.14,2291.55 C 11468.6,2051.52 14000,3701.69 14000,3701.69 V 0 Z"
         id="path50" /></clipPath><linearGradient
       x1="0"
       y1="0"
       x2="1"
       y2="0"
       gradientUnits="userSpaceOnUse"
       gradientTransform="matrix(-390.039,2040.2,2040.2,390.039,7712.9,1358.67)"
       spreadMethod="pad"
       id="linearGradient58"><stop
         style="stop-opacity:1;stop-color:#ffffff"
         offset="0"
         id="stop54" /><stop
         style="stop-opacity:1;stop-color:#d1d2d3"
         offset="1"
         id="stop56" /></linearGradient><clipPath
       clipPathUnits="userSpaceOnUse"
       id="clipPath68"><path
         d="m 0,5330 c 0,0 2830,2040 3967.89,4470 H 0 Z"
         id="path66" /></clipPath><linearGradient
       x1="0"
       y1="0"
       x2="1"
       y2="0"
       gradientUnits="userSpaceOnUse"
       gradientTransform="matrix(2147.5,-2721.58,-2721.58,-2147.5,1212.97,8542.08)"
       spreadMethod="pad"
       id="linearGradient74"><stop
         style="stop-opacity:1;stop-color:#ffffff"
         offset="0"
         id="stop70" /><stop
         style="stop-opacity:1;stop-color:#d1d2d3"
         offset="1"
         id="stop72" /></linearGradient></defs><sodipodi:namedview
     id="namedview4"
     pagecolor="#ffffff"
     bordercolor="#111111"
     borderopacity="1"
     inkscape:pageshadow="0"
     inkscape:pageopacity="0"
     inkscape:pagecheckerboard="1"
     showgrid="false"
     inkscape:zoom="0.62624997"
     inkscape:cx="933.33337"
     inkscape:cy="653.89224"
     inkscape:window-width="1920"
     inkscape:window-height="1017"
     inkscape:window-x="1912"
     inkscape:window-y="-8"
     inkscape:window-maximized="1"
     inkscape:current-layer="g8" /><g
     id="g8"
     inkscape:groupmode="layer"
     inkscape:label="ink_ext_XXXXXX"
     transform="matrix(1.3333333,0,0,-1.3333333,0,1306.6667)"><g
       id="g10"
       transform="scale(0.1)"><path
         d="M 14000,0 H 0 V 9800 H 14000 V 0"
         style="fill:#ffffff;fill-opacity:1;fill-rule:nonzero;stroke:none"
         id="path12" /><g
         id="g14"><g
           id="g16"
           clip-path="url(#clipPath20)"><path
             d="M 0,0 C 0,0 37.4961,3791.7 5918.08,5381.86 11798.7,6972.02 14000,9800 14000,9800 V 0 H 0"
             style="fill:url(#linearGradient26);fill-opacity:1;fill-rule:nonzero;stroke:none"
             id="path28" /></g></g><g
         id="g30"><g
           id="g32"
           clip-path="url(#clipPath36)"><path
             d="m 217.516,0 c 0,0 960.094,3461.67 6270.624,3911.71 C 12677.6,4436.24 14000,6430 14000,6430 V 0 H 217.516"
             style="fill:url(#linearGradient42);fill-opacity:1;fill-rule:nonzero;stroke:none"
             id="path44" /></g></g><g
         id="g46"><g
           id="g48"
           clip-path="url(#clipPath52)"><path
             d="m 1237.62,0 c 0,0 1511.26,2531.57 5871.14,2291.55 C 11468.6,2051.52 14000,3701.69 14000,3701.69 V 0 H 1237.62"
             style="fill:url(#linearGradient58);fill-opacity:1;fill-rule:nonzero;stroke:none"
             id="path60" /></g></g><g
         id="g62"><g
           id="g64"
           clip-path="url(#clipPath68)"><path
             d="m 0,5330 c 0,0 2830,2040 3967.89,4470 H 0 V 5330"
             style="fill:url(#linearGradient74);fill-opacity:1;fill-rule:nonzero;stroke:none"
             id="path76" /></g></g></g></g></svg>
